<svg xmlns="http://www.w3.org/2000/svg" xmlns:xlink="http://www.w3.org/1999/xlink" width="24" height="24" viewBox="0 0 24 24"><defs><clipPath id="a"><rect width="24" height="24" transform="translate(-0.006)" fill="#333"/></clipPath></defs><g transform="translate(0.006)"><g clip-path="url(#a)"><path d="M18.177,13.767a1.062,1.062,0,0,0-.775.306l-1.558,1.559a.4.4,0,0,1-.233.045c-.858,0-2.682-.955-4.505-2.78C8.654,10.446,8.113,8.417,8.37,8.159L9.93,6.6c1.027-1.027-.791-3.153-1.966-4.329C7.43,1.738,5.6,0,4.412,0a1.06,1.06,0,0,0-.775.306L.518,3.424c-.936.936-.6,2.752.993,5.4a42.057,42.057,0,0,0,6.13,7.539c3.8,3.8,8.846,7.645,11.533,7.645h0a1.909,1.909,0,0,0,1.4-.521L23.7,20.367c1.028-1.027-.791-3.152-1.966-4.328-.534-.534-2.364-2.272-3.553-2.272m1.288,8.6a.48.48,0,0,1-.291.06c-1.569,0-5.754-2.518-10.419-7.182a40.477,40.477,0,0,1-5.9-7.238C1.393,5.574,1.518,4.652,1.631,4.538L4.548,1.622a8.615,8.615,0,0,1,2.3,1.765,8.625,8.625,0,0,1,1.765,2.3L7.257,7.045c-1.454,1.456.4,4.631,2.734,6.966,2,2,4.152,3.241,5.62,3.241a1.835,1.835,0,0,0,1.347-.506l1.357-1.357a8.611,8.611,0,0,1,2.3,1.764,8.618,8.618,0,0,1,1.764,2.3Z" transform="translate(0 -0.001)" fill="#333"/></g></g></svg>