<svg width="30" height="24" viewBox="0 0 30 24" fill="none" xmlns="http://www.w3.org/2000/svg">
<g clip-path="url(#clip0_15_102)">
<path d="M0 0V1.5H5.162L9.115 17.2L10.565 16.835L6.327 0H0Z" fill="#F9FF29"/>
<mask id="mask0_15_102" style="mask-type:luminance" maskUnits="userSpaceOnUse" x="0" y="0" width="30" height="24">
<path d="M29.321 0H0V24H29.321V0Z" fill="white"/>
</mask>
<g mask="url(#mask0_15_102)">
<path d="M11.101 24C10.377 24 9.66919 23.7853 9.06716 23.3831C8.46514 22.9808 7.9959 22.4091 7.71878 21.7402C7.44166 21.0713 7.3691 20.3353 7.51028 19.6251C7.65146 18.915 8.00003 18.2627 8.51193 17.7506C9.02383 17.2386 9.67607 16.8898 10.3862 16.7484C11.0963 16.6071 11.8323 16.6794 12.5013 16.9564C13.1703 17.2333 13.7421 17.7024 14.1445 18.3043C14.5469 18.9062 14.7618 19.6139 14.762 20.338C14.7609 21.3087 14.3749 22.2394 13.6886 22.9259C13.0023 23.6124 12.0717 23.9987 11.101 24ZM11.101 18.251C10.6878 18.2502 10.2837 18.372 9.93978 18.601C9.59586 18.83 9.32762 19.1559 9.169 19.5374C9.01038 19.9189 8.96852 20.3389 9.04871 20.7442C9.1289 21.1496 9.32755 21.522 9.6195 21.8144C9.91146 22.1067 10.2836 22.3059 10.6888 22.3867C11.094 22.4675 11.5141 22.4262 11.8958 22.2681C12.2776 22.1101 12.6038 21.8423 12.8333 21.4987C13.0628 21.1551 13.1852 20.7512 13.185 20.338C13.1845 19.7845 12.9643 19.2538 12.5728 18.8625C12.1813 18.4712 11.6505 18.2512 11.097 18.251" fill="#F9FF29"/>
<path d="M24.88 24C24.156 24 23.4482 23.7853 22.8462 23.3831C22.2441 22.9808 21.7749 22.4091 21.4978 21.7402C21.2206 21.0713 21.1481 20.3353 21.2893 19.6251C21.4304 18.915 21.779 18.2627 22.2909 17.7506C22.8028 17.2386 23.4551 16.8898 24.1652 16.7484C24.8753 16.6071 25.6113 16.6794 26.2803 16.9564C26.9493 17.2333 27.5211 17.7024 27.9235 18.3043C28.3259 18.9062 28.5408 19.6139 28.541 20.338C28.5399 21.3087 28.1539 22.2394 27.4676 22.9259C26.7813 23.6124 25.8507 23.9987 24.88 24ZM24.88 18.251C24.467 18.251 24.0633 18.3735 23.7199 18.6029C23.3765 18.8324 23.1088 19.1586 22.9508 19.5402C22.7928 19.9218 22.7515 20.3416 22.8322 20.7467C22.9128 21.1518 23.1118 21.5238 23.4039 21.8158C23.696 22.1077 24.0682 22.3065 24.4733 22.387C24.8784 22.4674 25.2982 22.4259 25.6797 22.2678C26.0612 22.1096 26.3873 21.8418 26.6166 21.4983C26.8459 21.1548 26.9682 20.751 26.968 20.338C26.9677 19.7844 26.7476 19.2535 26.3561 18.8622C25.9645 18.4708 25.4336 18.251 24.88 18.251Z" fill="#F9FF29"/>
<path d="M22.153 18.635H13.827V20.209H22.153V18.635Z" fill="#F9FF29"/>
<path d="M25.457 15.698H9.59001V14.125H24.301L27.179 4.94399H6.88901V3.37H29.321L25.457 15.698Z" fill="#F9FF29"/>
</g>
</g>
<defs>
<clipPath id="clip0_15_102">
<rect width="29.321" height="24" fill="white"/>
</clipPath>
</defs>
</svg>
