<svg xmlns="http://www.w3.org/2000/svg" xmlns:xlink="http://www.w3.org/1999/xlink" width="29.321" height="24" viewBox="0 0 29.321 24"><defs><clipPath id="a"><rect width="29.321" height="24" fill="#333"/></clipPath></defs><path d="M0,0v1.5H5.162L9.115,17.2l1.45-.365L6.327,0Z" transform="translate(0 0)" fill="#333"/><g transform="translate(0 0)"><g clip-path="url(#a)"><path d="M13.116,28.517a3.661,3.661,0,1,1,3.661-3.662,3.666,3.666,0,0,1-3.661,3.662m0-5.749A2.088,2.088,0,1,0,15.2,24.855a2.089,2.089,0,0,0-2.088-2.087" transform="translate(-2.015 -4.517)" fill="#333"/><path d="M30.627,28.517a3.661,3.661,0,1,1,3.661-3.662,3.666,3.666,0,0,1-3.661,3.662m0-5.749a2.088,2.088,0,1,0,2.088,2.087,2.088,2.088,0,0,0-2.088-2.087" transform="translate(-5.747 -4.517)" fill="#333"/><rect width="8.326" height="1.574" transform="translate(13.827 18.635)" fill="#333"/><path d="M27.323,16.611H11.456V15.038H26.167l2.878-9.181H8.755V4.283H31.187Z" transform="translate(-1.866 -0.913)" fill="#333"/></g></g></svg>