<svg width="115" height="115" viewBox="0 0 115 115" fill="none" xmlns="http://www.w3.org/2000/svg">
<path d="M81.9221 56.8466C87.4765 50.4107 90.4687 42.0321 90.295 33.4008C90.1213 24.7696 86.7948 16.5275 80.9865 10.3367C75.1781 4.14592 67.3197 0.466884 58.9963 0.041473C50.6725 -0.383939 42.5028 2.47593 36.1344 8.0444C29.7659 13.6128 25.6726 21.4756 24.6796 30.0473C23.6867 38.619 25.8681 47.2618 30.784 54.2329C35.6999 61.2042 42.9845 65.985 51.1692 67.612C59.3535 69.2385 67.8291 67.5902 74.8863 62.9985C83.6122 66.3894 91.2287 72.2782 96.8489 79.9793C102.47 87.6799 105.863 96.8764 106.634 106.498H8.4037C9.46808 93.2573 15.4701 80.9679 25.1364 72.2361C25.945 71.4908 26.4371 70.4457 26.5058 69.3265C26.5746 68.2079 26.2144 67.1061 25.5036 66.2607C24.7926 65.4153 23.7885 64.8949 22.7093 64.8117C21.63 64.729 20.5627 65.0908 19.7394 65.8182C13.5406 71.4101 8.57117 78.3136 5.16608 86.063C1.761 93.813 -0.000622747 102.229 2.65898e-06 110.744C-0.000611691 111.303 0.105238 111.857 0.311491 112.373C0.517743 112.89 0.820346 113.359 1.20198 113.755C1.58361 114.15 2.03677 114.464 2.53551 114.677C3.03425 114.891 3.56877 115 4.10848 115H110.892C111.431 115 111.966 114.891 112.464 114.677C112.963 114.464 113.416 114.15 113.798 113.755C114.18 113.359 114.482 112.89 114.689 112.373C114.895 111.857 115 111.303 115 110.744C115.007 99.4315 111.9 88.3517 106.042 78.805C100.183 69.2583 91.8132 61.6404 81.9221 56.8466ZM32.8585 34.1637C32.8585 29.115 34.3037 24.1796 37.0113 19.9818C39.719 15.7839 43.5674 12.5121 48.0701 10.58C52.5726 8.64794 57.5275 8.14243 62.3074 9.12743C67.0872 10.1124 71.4781 12.5436 74.9241 16.1135C78.3706 19.6835 80.7171 24.2319 81.6681 29.1836C82.6187 34.1354 82.1308 39.268 80.2656 43.9323C78.4009 48.5966 75.2425 52.5837 71.1901 55.3884C67.1376 58.1935 62.3737 59.6904 57.5 59.6904C50.967 59.6827 44.7036 56.9907 40.084 52.2055C35.4644 47.4198 32.8659 40.9315 32.8585 34.1637Z" fill="#F9FF29"/>
</svg>
