<svg xmlns="http://www.w3.org/2000/svg" xmlns:xlink="http://www.w3.org/1999/xlink" width="25.263" height="24" viewBox="0 0 25.263 24"><defs><clipPath id="a"><rect width="25.263" height="24" fill="#333"/></clipPath></defs><g clip-path="url(#a)"><path d="M17.547,11.728A7.053,7.053,0,1,0,16.04,13a10.537,10.537,0,0,1,6.8,8.994H1.8A10.562,10.562,0,0,1,5.384,14.91a.88.88,0,0,0-1.156-1.327A12.316,12.316,0,0,0,0,22.872a.879.879,0,0,0,.88.88H23.752a.879.879,0,0,0,.88-.88,12.294,12.294,0,0,0-7.084-11.144M7.038,7.038a5.278,5.278,0,1,1,5.278,5.278A5.284,5.284,0,0,1,7.038,7.038" transform="translate(0)" fill="#333"/></g></svg>