<svg width="486" height="466" viewBox="0 0 486 466" fill="none" xmlns="http://www.w3.org/2000/svg">
<g clip-path="url(#clip0_24_2)">
<mask id="mask0_24_2" style="mask-type:luminance" maskUnits="userSpaceOnUse" x="0" y="0" width="486" height="466">
<path d="M486 0H0V466H486V0Z" fill="white"/>
</mask>
<g mask="url(#mask0_24_2)">
<path d="M0 233.047C0 242.076 7.49789 249.393 16.7485 249.393H335.75L273.527 310.023C267.003 316.39 267.003 326.748 273.527 333.115C276.741 336.251 281.025 337.867 285.309 337.867C289.594 337.867 293.879 336.251 297.092 333.115L387.748 244.641C394.272 238.274 394.272 227.916 387.748 221.549L297.092 133.075C290.568 126.708 279.954 126.708 273.43 133.075C266.906 139.442 266.906 149.8 273.43 156.168L335.555 216.797H16.7485C7.49789 216.797 0 224.02 0 233.047Z" fill="#F9FF29"/>
<path d="M385.996 465.494C441.207 465.494 486 421.684 486 367.802V98.1986C486 44.3157 441.11 0.506409 385.996 0.506409H109.742C54.5302 0.506409 9.73749 44.3157 9.73749 98.1986V153.602C9.73749 162.629 17.2354 169.852 26.3887 169.852C35.6393 169.852 43.1372 162.534 43.1372 153.602V98.1986C43.1372 62.3717 73.0312 33.1021 109.742 33.1021H385.996C422.706 33.1021 452.6 62.2768 452.6 98.1986V367.802C452.6 403.628 422.706 432.898 385.996 432.898H109.742C73.0312 432.898 43.1372 403.723 43.1372 367.802V313.064C43.1372 304.036 35.6393 296.718 26.3887 296.718C17.1381 296.718 9.73749 304.036 9.73749 313.064V367.802C9.73749 421.684 54.6275 465.494 109.742 465.494H385.996Z" fill="#F9FF29"/>
</g>
</g>
<defs>
<clipPath id="clip0_24_2">
<rect width="486" height="466" fill="white"/>
</clipPath>
</defs>
</svg>
