<svg width="800" height="786" viewBox="0 0 800 786" fill="none" xmlns="http://www.w3.org/2000/svg">
<path d="M0 393.08C0 408.308 12.3422 420.65 27.5696 420.65H552.675L450.25 522.914C439.511 533.653 439.511 551.125 450.25 561.864C455.54 567.153 462.593 569.878 469.645 569.878C476.698 569.878 483.751 567.153 489.04 561.864L638.269 412.635C649.008 401.896 649.008 384.425 638.269 373.685L489.04 224.457C478.301 213.717 460.829 213.717 450.09 224.457C439.351 235.196 439.351 252.667 450.09 263.407L552.354 365.671H27.5696C12.3422 365.671 0 377.853 0 393.08Z" fill="black"/>
<path d="M635.384 785.146C726.267 785.146 800 711.253 800 620.369V165.631C800 74.7471 726.107 0.854126 635.384 0.854126H180.645C89.7616 0.854126 16.0288 74.7471 16.0288 165.631V259.079C16.0288 274.306 28.3711 286.488 43.4382 286.488C58.6656 286.488 71.0078 274.146 71.0078 259.079V165.631C71.0078 105.202 120.216 55.8331 180.645 55.8331H635.384C695.812 55.8331 745.021 105.042 745.021 165.631V620.369C745.021 680.798 695.812 730.167 635.384 730.167H180.645C120.216 730.167 71.0078 680.958 71.0078 620.369V528.043C71.0078 512.816 58.6656 500.473 43.4382 500.473C28.2108 500.473 16.0288 512.816 16.0288 528.043V620.369C16.0288 711.253 89.9218 785.146 180.645 785.146H635.384Z" fill="black"/>
</svg>
